<?xml version="1.0" standalone="no"?><!DOCTYPE svg PUBLIC "-//W3C//DTD SVG 1.1//EN" "http://www.w3.org/Graphics/SVG/1.1/DTD/svg11.dtd"><svg t="1719244167727" class="icon" viewBox="0 0 1024 1024" version="1.1" xmlns="http://www.w3.org/2000/svg" p-id="13042" xmlns:xlink="http://www.w3.org/1999/xlink" width="200" height="200"><path d="M657.984 169.216a32 32 0 0 1 31.488 26.24l0.512 5.76v30.72l110.016 0.064a112 112 0 0 1 111.616 102.784l0.384 9.216v400a112 112 0 0 1-112 112h-576a112 112 0 0 1-112-112v-400c0-61.824 50.176-112 112-112h97.984v-30.784a32 32 0 0 1 63.488-5.76l0.512 5.76v30.72h240v-30.72a32 32 0 0 1 32-32z m190.016 296H176v278.784c0 24.32 18.048 44.352 41.472 47.552l6.528 0.448h576a48 48 0 0 0 48-48V465.216z m-136 136a32 32 0 0 1 5.76 63.488l-5.76 0.512h-400a32 32 0 0 1-5.76-63.488l5.76-0.512h400z m-390.016-305.28L224 296.064a48 48 0 0 0-48 48v57.216h672v-57.216a48 48 0 0 0-41.472-47.552l-6.528-0.448h-110.016v25.216a32 32 0 0 1-63.488 5.76l-0.512-5.76v-25.216h-240v25.216a32 32 0 0 1-63.488 5.76l-0.512-5.76v-25.216z" fill="#0a66c2" p-id="13043"></path></svg>